<?xml version="1.0" encoding="utf-8"?>
<!-- Generator: Adobe Illustrator 24.3.0, SVG Export Plug-In . SVG Version: 6.00 Build 0)  -->
<svg version="1.1" id="Layer_1" xmlns="http://www.w3.org/2000/svg" xmlns:xlink="http://www.w3.org/1999/xlink" x="0px" y="0px"
	 viewBox="0 0 1280 1267.3" style="enable-background:new 0 0 1280 1267.3;" xml:space="preserve">
<style type="text/css">
	.st0{fill:none;stroke:#000000;stroke-width:3;stroke-miterlimit:10;}
</style>
<rect x="320.6" class="st0" width="638.8" height="8.4"/>
<rect x="340.6" y="51.4" class="st0" width="598.8" height="8.3"/>
<rect x="360.6" y="102.8" class="st0" width="558.8" height="8.3"/>
<rect x="380.5" y="154.2" class="st0" width="518.9" height="8.4"/>
<rect x="400.5" y="205.7" class="st0" width="478.9" height="8.4"/>
<rect x="420.5" y="257.1" class="st0" width="438.9" height="8.4"/>
<rect x="440.5" y="308.5" class="st0" width="399" height="8.4"/>
<rect x="460.5" y="359.9" class="st0" width="359" height="8.4"/>
<rect x="480.5" y="411.3" class="st0" width="319" height="8.4"/>
<rect x="500.5" y="462.7" class="st0" width="279" height="8.4"/>
<rect x="520.5" y="514.1" class="st0" width="239" height="8.3"/>
<rect x="540.5" y="565.6" class="st0" width="199.1" height="8.3"/>
<rect x="560.4" y="617" class="st0" width="159.1" height="8.3"/>
<rect x="580.4" y="668.4" class="st0" width="119.1" height="8.3"/>
<rect x="600.4" y="719.8" class="st0" width="79.2" height="8.3"/>
<rect x="620.4" y="771.2" class="st0" width="39.2" height="8.3"/>
<rect class="st0" width="320.6" height="16.7"/>
<rect x="20" y="51.4" class="st0" width="320.6" height="16.7"/>
<rect x="40" y="102.8" class="st0" width="320.6" height="16.7"/>
<rect x="60" y="154.2" class="st0" width="320.6" height="16.7"/>
<rect x="79.9" y="205.7" class="st0" width="320.6" height="16.7"/>
<rect x="99.9" y="257.1" class="st0" width="320.6" height="16.7"/>
<rect x="119.9" y="308.5" class="st0" width="320.6" height="16.7"/>
<rect x="139.9" y="359.9" class="st0" width="320.6" height="16.7"/>
<rect x="159.9" y="411.3" class="st0" width="320.6" height="16.7"/>
<rect x="179.9" y="462.7" class="st0" width="320.6" height="16.7"/>
<rect x="199.9" y="514.1" class="st0" width="320.6" height="16.7"/>
<rect x="219.9" y="565.6" class="st0" width="320.6" height="16.7"/>
<rect x="239.9" y="617" class="st0" width="320.6" height="16.7"/>
<rect x="259.8" y="668.4" class="st0" width="320.6" height="16.7"/>
<rect x="279.8" y="719.8" class="st0" width="320.6" height="16.7"/>
<rect x="299.8" y="771.2" class="st0" width="320.6" height="16.7"/>
<rect x="319.8" y="822.6" class="st0" width="320.6" height="16.7"/>
<rect x="339.8" y="874" class="st0" width="320.6" height="16.7"/>
<rect x="359.8" y="925.5" class="st0" width="320.6" height="16.7"/>
<rect x="379.8" y="976.9" class="st0" width="320.6" height="16.7"/>
<rect x="399.8" y="1028.3" class="st0" width="320.6" height="16.7"/>
<rect x="419.7" y="1079.7" class="st0" width="320.6" height="16.7"/>
<rect x="439.7" y="1131.1" class="st0" width="320.6" height="16.7"/>
<rect x="459.7" y="1182.5" class="st0" width="320.6" height="16.7"/>
<rect x="479.7" y="1233.9" class="st0" width="320.6" height="16.7"/>
<rect x="959.4" class="st0" width="320.6" height="16.7"/>
<rect x="939.4" y="51.4" class="st0" width="320.6" height="16.7"/>
<rect x="919.4" y="102.8" class="st0" width="320.6" height="16.7"/>
<rect x="899.5" y="154.2" class="st0" width="320.6" height="16.7"/>
<rect x="879.5" y="205.7" class="st0" width="320.6" height="16.7"/>
<rect x="859.5" y="257.1" class="st0" width="320.6" height="16.7"/>
<rect x="839.5" y="308.5" class="st0" width="320.6" height="16.7"/>
<rect x="819.5" y="359.9" class="st0" width="320.6" height="16.7"/>
<rect x="799.5" y="411.3" class="st0" width="320.6" height="16.7"/>
<rect x="779.5" y="462.7" class="st0" width="320.6" height="16.7"/>
<rect x="759.5" y="514.1" class="st0" width="320.6" height="16.7"/>
<rect x="739.5" y="565.6" class="st0" width="320.6" height="16.7"/>
<rect x="719.6" y="617" class="st0" width="320.6" height="16.7"/>
<rect x="699.6" y="668.4" class="st0" width="320.6" height="16.7"/>
<rect x="679.6" y="719.8" class="st0" width="320.6" height="16.7"/>
<rect x="659.6" y="771.2" class="st0" width="320.6" height="16.7"/>
<rect x="319.8" y="822.6" class="st0" width="640.4" height="16.7"/>
<rect x="339.8" y="874" class="st0" width="600.4" height="16.7"/>
<rect x="359.8" y="925.5" class="st0" width="560.4" height="16.7"/>
<rect x="377.1" y="976.9" class="st0" width="523.2" height="16.7"/>
<rect x="399.8" y="1028.3" class="st0" width="480.5" height="16.7"/>
<rect x="419.7" y="1079.7" class="st0" width="440.5" height="16.7"/>
<rect x="439.7" y="1131.1" class="st0" width="400.5" height="16.7"/>
<rect x="459.7" y="1182.5" class="st0" width="360.6" height="16.7"/>
<rect x="479.7" y="1233.9" class="st0" width="320.6" height="16.7"/>
<rect x="58.4" y="16.7" width="34.1" height="16.7"/>
<rect x="75.4" y="68.1" width="39.6" height="16.7"/>
<rect x="95.2" y="119.5" width="53.3" height="16.7"/>
<rect x="112.9" y="170.9" width="65.9" height="16.7"/>
<rect x="162.5" y="222.4" width="36.9" height="16.7"/>
<rect x="169.7" y="273.8" width="52" height="16.7"/>
<rect x="181.1" y="325.2" width="68.1" height="16.7"/>
<rect x="191.1" y="376.6" width="79.9" height="16.7"/>
<rect x="209.4" y="428" width="88.6" height="16.7"/>
<rect x="228.4" y="479.4" width="93.6" height="16.7"/>
<rect x="249.2" y="530.8" width="102.6" height="16.7"/>
<rect x="274.9" y="582.2" width="105.1" height="16.7"/>
<rect x="305.1" y="633.7" width="109.9" height="16.7"/>
<rect x="329.3" y="685.1" width="104.3" height="16.7"/>
<rect x="345.1" y="736.5" width="118.4" height="16.7"/>
<rect x="360.1" y="787.9" width="126.3" height="16.7"/>
<rect x="369.2" y="839.3" width="140.1" height="16.7"/>
<rect x="383.3" y="890.7" width="149" height="16.7"/>
<rect x="396.4" y="942.2" width="161.4" height="16.7"/>
<rect x="410.8" y="993.6" width="166" height="16.7"/>
<rect x="434" y="1045" width="172.2" height="16.7"/>
<rect x="451.3" y="1096.4" width="169.7" height="16.7"/>
<rect x="692" y="1096.4" width="127.9" height="16.7"/>
<rect x="469.4" y="1147.8" width="338.5" height="16.7"/>
<rect x="499.8" y="1199.2" width="280.6" height="16.7"/>
<rect x="544" y="1250.6" width="181.5" height="16.7"/>
<rect x="1181.3" y="16.7" width="46.3" height="16.7"/>
<rect x="1165.7" y="68.1" width="47" height="16.7"/>
<rect x="1152.6" y="119.5" width="37" height="16.7"/>
<rect x="1126.9" y="170.9" width="45.9" height="16.7"/>
<rect x="1099.8" y="222.4" width="52.8" height="16.7"/>
<rect x="1078.1" y="273.8" width="56.6" height="16.7"/>
<rect x="1053.4" y="325.2" width="53" height="16.7"/>
<rect x="1029.6" y="376.6" width="56.6" height="16.7"/>
<rect x="998.1" y="428" width="75.8" height="16.7"/>
<rect x="925.9" y="479.4" width="123.8" height="16.7"/>
<rect x="904.5" y="530.8" width="129" height="16.7"/>
<rect x="910.4" y="582.2" width="104.1" height="16.7"/>
<rect x="927.2" y="633.7" width="73.5" height="16.7"/>
<rect x="879.8" y="685.1" width="101.7" height="16.7"/>
<rect x="824.2" y="736.5" width="136.5" height="16.7"/>
<rect x="795" y="787.9" width="143.3" height="16.7"/>
<rect x="780" y="839.3" width="137.5" height="16.7"/>
<rect x="777.7" y="890.7" width="118.6" height="16.7"/>
<rect x="774.6" y="942.2" width="98.9" height="16.7"/>
<rect x="758.5" y="993.6" width="91.5" height="16.7"/>
<rect x="726.6" y="1045" width="110.9" height="16.7"/>
</svg>
