<?xml version="1.0" encoding="utf-8"?>
<!-- Generator: Adobe Illustrator 24.3.0, SVG Export Plug-In . SVG Version: 6.00 Build 0)  -->
<svg version="1.1" id="Layer_1" xmlns="http://www.w3.org/2000/svg" xmlns:xlink="http://www.w3.org/1999/xlink" x="0px" y="0px"
	 viewBox="0 0 2046.82 582.76" style="enable-background:new 0 0 2046.82 582.76;" xml:space="preserve">
<style type="text/css">
	.st0{fill:none;stroke:#000000;stroke-width:6.1566;stroke-miterlimit:10;}
</style>
<g>
	<path class="st0" d="M1639.86,189.97c-41.37-41.37-98.49-66.94-161.59-66.94c-39.31,0-76.3,9.92-108.58,27.42
		c-71.43,38.62-119.93,114.2-119.93,201.09v228.52h119.93V351.54c0-59.96,48.61-108.56,108.58-108.56
		c29.98,0,57.12,12.15,76.76,31.8c19.66,19.64,31.8,46.78,31.8,76.76v228.51h119.95V351.54
		C1706.78,288.44,1681.21,231.32,1639.86,189.97z"/>
	<path class="st0" d="M1249.75,351.54v108.58h-228.51V351.54h108.58c0-29.98-12.15-57.12-31.8-76.76
		c-19.64-19.66-46.78-31.8-76.78-31.8c-29.98,0-57.12,12.15-76.76,31.8c-19.66,19.64-31.8,46.78-31.8,76.76
		c0,59.96,48.61,108.58,108.56,108.58v119.93c-126.2,0-228.51-102.31-228.51-228.51c0-63.1,25.57-120.22,66.94-161.59
		c41.35-41.35,98.47-66.92,161.57-66.92c63.1,0,120.22,25.57,161.57,66.92C1224.18,231.32,1249.75,288.44,1249.75,351.54z"/>
	<path class="st0" d="M1976.83,189.95c-15.61-15.61-33.46-28.95-53.03-39.52c-18.59-10.07-38.73-17.62-59.98-22.22
		c-15.65-3.4-31.91-5.18-48.58-5.18c-63.1,0-120.22,25.57-161.59,66.92c-41.35,41.37-66.92,98.49-66.92,161.59
		c0,126.2,102.31,228.51,228.51,228.51h48.58V460.11h-48.58c-59.98,0-108.58-48.61-108.58-108.56c0-29.98,12.15-57.12,31.8-76.78
		c19.66-19.66,46.8-31.8,76.78-31.8c17.47,0,33.96,4.13,48.58,11.45c10.47,5.24,19.97,12.15,28.17,20.35
		c19.66,19.65,31.8,46.8,31.8,76.78v228.51h119.95V351.55C2043.74,288.44,2018.17,231.32,1976.83,189.95z"/>
	<path class="st0" d="M1189.78,580.06L1189.78,580.06c-33.12,0-59.98-26.85-59.98-59.98v0c0-33.12,26.85-59.98,59.98-59.98h0
		c33.12,0,59.98,26.85,59.98,59.98v0C1249.75,553.21,1222.9,580.06,1189.78,580.06z"/>
	<path class="st0" d="M455.64,331.58V3.08H575.6v147.34"/>
	<path class="st0" d="M455.64,535.69"/>
	<path class="st0" d="M1249.75,460.12"/>
	<path class="st0" d="M912.68,351.55v228.51H792.72V351.55c0-29.99-12.15-57.12-31.79-76.76c-19.64-19.66-46.8-31.81-76.76-31.81
		c-59.04,0-107.07,47.12-108.57,105.77c-0.02,0.94-0.02,1.87-0.02,2.81v228.51H455.64V351.55c0-43.44,12.12-84.06,33.17-118.65
		c21.07-34.6,51.06-63.13,86.77-82.45c0,0,0.02,0,0.02-0.02c32.28-17.47,69.25-27.38,108.57-27.38
		c63.08,0,120.21,25.55,161.58,66.93C887.1,231.32,912.68,288.44,912.68,351.55z"/>
	<path class="st0" d="M576.9,334.34c-20.66,139.04-140.54,245.72-285.34,245.72h0C132.24,580.06,3.08,450.9,3.08,291.57v0
		C3.08,132.24,132.24,3.08,291.57,3.08h0l0,119.95c-93.08,0-168.54,75.46-168.54,168.54v0c0,93.08,75.46,168.54,168.54,168.54"/>
	<path class="st0" d="M291.57,460.11L291.57,460.11c79.3,0,145.8-54.76,163.76-128.53"/>
</g>
</svg>
