<?xml version="1.0" encoding="utf-8"?>
<!-- Generator: Adobe Illustrator 24.3.0, SVG Export Plug-In . SVG Version: 6.00 Build 0)  -->
<svg version="1.1" id="Layer_1" xmlns="http://www.w3.org/2000/svg" xmlns:xlink="http://www.w3.org/1999/xlink" x="0px" y="0px"
	 viewBox="0 0 2046.82 582.76" style="enable-background:new 0 0 2046.82 582.76;" xml:space="preserve">
<style type="text/css">
	.st0{fill:none;stroke:#000000;stroke-width:6.1566;stroke-miterlimit:10;}
</style>
<g>
	<path class="st0" d="M1640.12,189.84c-41.34-41.34-98.43-66.9-161.49-66.9c-39.29,0-76.25,9.92-108.51,27.4
		c-71.38,38.59-119.85,114.13-119.85,200.96v228.37h119.85V351.31c0-59.92,48.57-108.49,108.51-108.49
		c29.96,0,57.09,12.14,76.71,31.78c19.64,19.62,31.78,46.75,31.78,76.71v228.36H1707V351.31
		C1707,288.25,1681.44,231.16,1640.12,189.84z"/>
	<path class="st0" d="M1250.27,351.31v108.51h-228.36V351.31h108.51c0-29.96-12.14-57.09-31.78-76.71
		c-19.62-19.64-46.75-31.78-76.73-31.78c-29.96,0-57.09,12.14-76.71,31.78c-19.64,19.62-31.78,46.75-31.78,76.71
		c0,59.92,48.57,108.51,108.49,108.51v119.85c-126.12,0-228.36-102.24-228.36-228.36c0-63.06,25.56-120.15,66.9-161.49
		c41.32-41.32,98.41-66.88,161.47-66.88c63.06,0,120.15,25.56,161.47,66.88C1224.71,231.16,1250.27,288.25,1250.27,351.31z"/>
	<path class="st0" d="M1976.87,189.83c-15.6-15.6-33.44-28.93-53-39.5c-18.57-10.06-38.7-17.61-59.94-22.2
		c-15.64-3.4-31.89-5.18-48.55-5.18c-63.06,0-120.15,25.55-161.49,66.88c-41.32,41.34-66.88,98.43-66.88,161.49
		c0,126.12,102.24,228.36,228.36,228.36h48.55V459.8h-48.55c-59.94,0-108.51-48.57-108.51-108.49c0-29.96,12.14-57.09,31.78-76.73
		c19.64-19.64,46.77-31.78,76.73-31.78c17.46,0,33.94,4.13,48.55,11.45c10.46,5.24,19.96,12.14,28.16,20.34
		c19.64,19.64,31.78,46.77,31.78,76.73v228.36h119.87V351.31C2043.74,288.25,2018.19,231.17,1976.87,189.83z"/>
	<rect x="456.66" y="3.08" class="st0" width="119.87" height="576.6"/>
	<path class="st0" d="M456.68,535.34"/>
	<path class="st0" d="M1250.27,459.82"/>
	<path class="st0" d="M846.54,189.84c-41.34-41.34-98.43-66.9-161.49-66.9c-39.29,0-76.25,9.92-108.51,27.4h-0.01
		c-71.38,38.6-119.85,114.13-119.85,200.96v228.37h119.85l0.01-228.37c0-59.92,48.57-108.49,108.51-108.49
		c29.96,0,57.09,12.14,76.71,31.78c19.64,19.62,31.78,46.75,31.78,76.71v228.37h119.87V351.31
		C913.42,288.25,887.86,231.16,846.54,189.84z"/>
	<path class="st0" d="M1190.34,579.67L1190.34,579.67c33.1,0,59.93-26.83,59.93-59.93v0c0-33.1-26.83-59.93-59.93-59.93h0
		c-33.1,0-59.93,26.83-59.93,59.93v0C1130.42,552.84,1157.25,579.67,1190.34,579.67z"/>
	<path class="st0" d="M576.53,334.12c-20.65,138.95-140.45,245.56-285.15,245.56h0c-159.22,0-288.3-129.08-288.3-288.3v0
		c0-159.22,129.08-288.3,288.3-288.3h0l0,119.87c-93.02,0-168.43,75.41-168.43,168.43v0c0,93.02,75.41,168.43,168.43,168.43"/>
	<path class="st0" d="M455.99,327.17C439.58,403,372.11,459.8,291.38,459.8h0"/>
</g>
</svg>
