<?xml version="1.0" encoding="utf-8"?>
<!-- Generator: Adobe Illustrator 27.9.0, SVG Export Plug-In . SVG Version: 6.00 Build 0)  -->
<svg version="1.1" id="Layer_1" xmlns="http://www.w3.org/2000/svg" xmlns:xlink="http://www.w3.org/1999/xlink" x="0px" y="0px"
	 viewBox="0 0 182.31 185.18" style="enable-background:new 0 0 182.31 185.18;" xml:space="preserve">
<style type="text/css">
	.st0{fill:#FFFFFF;}
</style>
<g>
	<g>
		<path class="st0" d="M172.31,185.18c-5.52,0-10-4.48-10-10V20H10C4.48,20,0,15.52,0,10S4.48,0,10,0h162.31c5.52,0,10,4.48,10,10
			v165.18C182.31,180.71,177.84,185.18,172.31,185.18z"/>
	</g>
	<g>
		<path class="st0" d="M10,182.31c-2.56,0-5.12-0.98-7.07-2.93c-3.91-3.91-3.91-10.24,0-14.14L165.24,2.93
			c3.91-3.9,10.24-3.9,14.14,0c3.91,3.91,3.91,10.24,0,14.14L17.07,179.38C15.12,181.34,12.56,182.31,10,182.31z"/>
	</g>
</g>
</svg>
