<?xml version="1.0" encoding="utf-8"?>
<!-- Generator: Adobe Illustrator 27.9.0, SVG Export Plug-In . SVG Version: 6.00 Build 0)  -->
<svg version="1.1" id="Layer_1" xmlns="http://www.w3.org/2000/svg" xmlns:xlink="http://www.w3.org/1999/xlink" x="0px" y="0px"
	 viewBox="0 0 177.31 180.18" style="enable-background:new 0 0 177.31 180.18;" xml:space="preserve">
<style type="text/css">
	.st0{fill:#231F20;}
</style>
<g>
	<g>
		<path class="st0" d="M169.81,180.18c-4.14,0-7.5-3.36-7.5-7.5V15H7.5C3.36,15,0,11.64,0,7.5S3.36,0,7.5,0h162.31
			c4.14,0,7.5,3.36,7.5,7.5v165.18C177.31,176.83,173.96,180.18,169.81,180.18z"/>
	</g>
	<g>
		<path class="st0" d="M7.5,177.31c-1.92,0-3.84-0.73-5.3-2.2c-2.93-2.93-2.93-7.68,0-10.61L164.51,2.2c2.93-2.93,7.68-2.93,10.61,0
			c2.93,2.93,2.93,7.68,0,10.61L12.8,175.12C11.34,176.58,9.42,177.31,7.5,177.31z"/>
	</g>
</g>
</svg>
