<?xml version="1.0" encoding="utf-8"?>
<!-- Generator: Adobe Illustrator 27.9.0, SVG Export Plug-In . SVG Version: 6.00 Build 0)  -->
<svg version="1.1" id="Layer_1" xmlns="http://www.w3.org/2000/svg" xmlns:xlink="http://www.w3.org/1999/xlink" x="0px" y="0px"
	 viewBox="0 0 191.7 191.7" style="enable-background:new 0 0 191.7 191.7;" xml:space="preserve">
<style type="text/css">
	.st0{fill:#A9A9A9;}
</style>
<g>
	<g>
		<path class="st0" d="M183.2,191.7c-4.7,0-8.5-3.8-8.5-8.5V17H8.5C3.8,17,0,13.2,0,8.5S3.8,0,8.5,0h174.7c4.7,0,8.5,3.8,8.5,8.5
			v174.7C191.7,187.9,187.9,191.7,183.2,191.7z"/>
	</g>
	<g>
		<path class="st0" d="M8.5,191.7c-2.2,0-4.4-0.8-6-2.5c-3.3-3.3-3.3-8.7,0-12L177.2,2.5c3.3-3.3,8.7-3.3,12,0c3.3,3.3,3.3,8.7,0,12
			L14.5,189.2C12.9,190.8,10.7,191.7,8.5,191.7z"/>
	</g>
</g>
</svg>
