<?xml version="1.0" encoding="utf-8"?>
<!-- Generator: Adobe Illustrator 27.9.0, SVG Export Plug-In . SVG Version: 6.00 Build 0)  -->
<svg version="1.1" id="Layer_1" xmlns="http://www.w3.org/2000/svg" xmlns:xlink="http://www.w3.org/1999/xlink" x="0px" y="0px"
	 viewBox="0 0 244.54 246.57" style="enable-background:new 0 0 244.54 246.57;" xml:space="preserve">
<style type="text/css">
	.st0{fill:#FFFFFF;stroke:#231F20;stroke-miterlimit:10;}
	.st1{fill:#FFFFFF;stroke:#231F20;stroke-width:30;stroke-miterlimit:10;}
	.st2{fill:#231F20;}
</style>
<polyline class="st0" points="-736.42,-1478.73 -898.74,-1478.73 -898.74,-1643.92 "/>
<path class="st1" d="M49.35-1641.04"/>
<g>
	<g>
		<path class="st2" d="M120.24,246.57c-1.92,0-3.84-0.73-5.3-2.2c-2.93-2.93-2.93-7.68,0-10.61l111.5-111.5L116.97,12.8
			c-2.93-2.93-2.93-7.68,0-10.61c2.93-2.93,7.68-2.93,10.61,0l114.77,114.77c2.93,2.93,2.93,7.68,0,10.61l-116.8,116.8
			C124.08,245.84,122.16,246.57,120.24,246.57z"/>
	</g>
	<g>
		<path class="st2" d="M237.04,129.77H7.5c-4.14,0-7.5-3.36-7.5-7.5s3.36-7.5,7.5-7.5h229.54c4.14,0,7.5,3.36,7.5,7.5
			S241.19,129.77,237.04,129.77z"/>
	</g>
</g>
</svg>
