<?xml version="1.0" encoding="utf-8"?>
<!-- Generator: Adobe Illustrator 27.9.0, SVG Export Plug-In . SVG Version: 6.00 Build 0)  -->
<svg version="1.1" id="Layer_1" xmlns="http://www.w3.org/2000/svg" xmlns:xlink="http://www.w3.org/1999/xlink" x="0px" y="0px"
	 viewBox="0 0 264 264" style="enable-background:new 0 0 264 264;" xml:space="preserve">
<style type="text/css">
	.st0{fill:#A9A9A9;}
</style>
<g>
	<g>
		<path class="st0" d="M261.5,138c-3.3,3.3-8.7,3.3-12,0L132,20.5L14.5,138c-3.3,3.3-8.7,3.3-12,0s-3.3-8.7,0-12L126,2.5
			c3.3-3.3,8.7-3.3,12,0L261.5,126C264.8,129.3,264.8,134.7,261.5,138z"/>
	</g>
	<g>
		<path class="st0" d="M138,261.5c-1.5,1.5-3.7,2.5-6,2.5c-4.7,0-8.5-3.8-8.5-8.5V8.5c0-4.7,3.8-8.5,8.5-8.5c4.7,0,8.5,3.8,8.5,8.5
			v247C140.5,257.9,139.6,260,138,261.5z"/>
	</g>
</g>
</svg>
